<mxfile host="app.diagrams.net" agent="Mozilla/5.0 (Windows NT 10.0; Win64; x64) AppleWebKit/537.36 (KHTML, like Gecko) Chrome/127.0.0.0 Safari/537.36 OPR/113.0.0.0" version="24.7.14">
  <diagram name="Página-1" id="Km7Ur4VRut4dLIVePat_">
    <mxGraphModel grid="1" page="1" gridSize="10" guides="1" tooltips="1" connect="1" arrows="1" fold="1" pageScale="1" pageWidth="827" pageHeight="1169" math="0" shadow="0">
      <root>
        <mxCell id="0" />
        <mxCell id="1" parent="0" />
        <mxCell id="-K3TfnNwzPUzr7CPvffW-1" value="" style="swimlane;html=1;childLayout=stackLayout;startSize=20;rounded=0;shadow=0;comic=0;labelBackgroundColor=none;strokeWidth=1;fontFamily=Verdana;fontSize=12;align=center;direction=east;" vertex="1" parent="1">
          <mxGeometry x="320" y="20" width="1000" height="910" as="geometry">
            <mxRectangle y="20" width="70" height="30" as="alternateBounds" />
          </mxGeometry>
        </mxCell>
        <mxCell id="-K3TfnNwzPUzr7CPvffW-2" value="Usuario" style="swimlane;html=1;startSize=20;" vertex="1" parent="-K3TfnNwzPUzr7CPvffW-1">
          <mxGeometry y="20" width="250" height="890" as="geometry" />
        </mxCell>
        <mxCell id="-K3TfnNwzPUzr7CPvffW-3" style="edgeStyle=orthogonalEdgeStyle;rounded=0;orthogonalLoop=1;jettySize=auto;html=1;entryX=0.5;entryY=0;entryDx=0;entryDy=0;" edge="1" parent="-K3TfnNwzPUzr7CPvffW-2" source="-K3TfnNwzPUzr7CPvffW-4" target="-K3TfnNwzPUzr7CPvffW-6">
          <mxGeometry relative="1" as="geometry" />
        </mxCell>
        <mxCell id="-K3TfnNwzPUzr7CPvffW-4" value="" style="ellipse;whiteSpace=wrap;html=1;rounded=0;shadow=0;comic=0;labelBackgroundColor=none;strokeWidth=1;fillColor=#000000;fontFamily=Verdana;fontSize=12;align=center;" vertex="1" parent="-K3TfnNwzPUzr7CPvffW-2">
          <mxGeometry x="105" y="40" width="40" height="40" as="geometry" />
        </mxCell>
        <mxCell id="-K3TfnNwzPUzr7CPvffW-5" value="" style="shape=mxgraph.bpmn.shape;html=1;verticalLabelPosition=bottom;labelBackgroundColor=#ffffff;verticalAlign=top;perimeter=ellipsePerimeter;outline=end;symbol=terminate;rounded=0;shadow=0;comic=0;strokeWidth=1;fontFamily=Verdana;fontSize=12;align=center;" vertex="1" parent="-K3TfnNwzPUzr7CPvffW-2">
          <mxGeometry x="100" y="810" width="40" height="40" as="geometry" />
        </mxCell>
        <mxCell id="-K3TfnNwzPUzr7CPvffW-6" value="Iniciar aplicación" style="rounded=0;whiteSpace=wrap;html=1;" vertex="1" parent="-K3TfnNwzPUzr7CPvffW-2">
          <mxGeometry x="65" y="120" width="120" height="60" as="geometry" />
        </mxCell>
        <mxCell id="-K3TfnNwzPUzr7CPvffW-7" value="Seleccionar administración de dispositivos" style="whiteSpace=wrap;html=1;rounded=0;" vertex="1" parent="-K3TfnNwzPUzr7CPvffW-2">
          <mxGeometry x="65" y="240" width="120" height="60" as="geometry" />
        </mxCell>
        <mxCell id="-K3TfnNwzPUzr7CPvffW-8" style="edgeStyle=orthogonalEdgeStyle;rounded=0;orthogonalLoop=1;jettySize=auto;html=1;" edge="1" parent="-K3TfnNwzPUzr7CPvffW-2" source="-K3TfnNwzPUzr7CPvffW-9" target="-K3TfnNwzPUzr7CPvffW-5">
          <mxGeometry relative="1" as="geometry" />
        </mxCell>
        <mxCell id="-K3TfnNwzPUzr7CPvffW-9" value="Visualiza los dispositivos conectados" style="whiteSpace=wrap;html=1;rounded=0;" vertex="1" parent="-K3TfnNwzPUzr7CPvffW-2">
          <mxGeometry x="60" y="710" width="120" height="60" as="geometry" />
        </mxCell>
        <mxCell id="-K3TfnNwzPUzr7CPvffW-17" value="Seleccionar monitorear dispositivos" style="whiteSpace=wrap;html=1;rounded=0;" vertex="1" parent="-K3TfnNwzPUzr7CPvffW-2">
          <mxGeometry x="65" y="350" width="120" height="60" as="geometry" />
        </mxCell>
        <mxCell id="-K3TfnNwzPUzr7CPvffW-11" value="Interfaz" style="swimlane;html=1;startSize=20;" vertex="1" parent="-K3TfnNwzPUzr7CPvffW-1">
          <mxGeometry x="250" y="20" width="250" height="890" as="geometry" />
        </mxCell>
        <mxCell id="-K3TfnNwzPUzr7CPvffW-12" value="Despliega apartado Menú principal" style="rounded=0;whiteSpace=wrap;html=1;" vertex="1" parent="-K3TfnNwzPUzr7CPvffW-11">
          <mxGeometry x="65" y="120" width="120" height="60" as="geometry" />
        </mxCell>
        <mxCell id="-K3TfnNwzPUzr7CPvffW-14" value="Interfaz administración de dispositivos" style="whiteSpace=wrap;html=1;rounded=0;" vertex="1" parent="-K3TfnNwzPUzr7CPvffW-11">
          <mxGeometry x="65" y="240" width="120" height="60" as="geometry" />
        </mxCell>
        <mxCell id="-K3TfnNwzPUzr7CPvffW-15" value="Mensaje de que no existen dispositivos" style="whiteSpace=wrap;html=1;rounded=0;" vertex="1" parent="-K3TfnNwzPUzr7CPvffW-11">
          <mxGeometry x="70" y="525" width="120" height="60" as="geometry" />
        </mxCell>
        <mxCell id="-K3TfnNwzPUzr7CPvffW-16" value="Despliega dispositivos conectados" style="whiteSpace=wrap;html=1;rounded=0;" vertex="1" parent="-K3TfnNwzPUzr7CPvffW-11">
          <mxGeometry x="60" y="710" width="120" height="60" as="geometry" />
        </mxCell>
        <mxCell id="-K3TfnNwzPUzr7CPvffW-18" value="Botón iniciar monitoreo" style="whiteSpace=wrap;html=1;rounded=0;" vertex="1" parent="-K3TfnNwzPUzr7CPvffW-11">
          <mxGeometry x="65" y="420" width="120" height="60" as="geometry" />
        </mxCell>
        <mxCell id="-K3TfnNwzPUzr7CPvffW-19" value="Capa de negocio" style="swimlane;html=1;startSize=20;" vertex="1" parent="-K3TfnNwzPUzr7CPvffW-1">
          <mxGeometry x="500" y="20" width="250" height="890" as="geometry">
            <mxRectangle x="500" y="20" width="40" height="970" as="alternateBounds" />
          </mxGeometry>
        </mxCell>
        <mxCell id="-K3TfnNwzPUzr7CPvffW-20" value="Captura los datos" style="whiteSpace=wrap;html=1;rounded=0;" vertex="1" parent="-K3TfnNwzPUzr7CPvffW-19">
          <mxGeometry x="65" y="710" width="120" height="60" as="geometry" />
        </mxCell>
        <mxCell id="-K3TfnNwzPUzr7CPvffW-21" value="" style="group" connectable="0" vertex="1" parent="-K3TfnNwzPUzr7CPvffW-19">
          <mxGeometry x="65" y="510" width="105" height="100" as="geometry" />
        </mxCell>
        <mxCell id="-K3TfnNwzPUzr7CPvffW-22" value="¿Existen dispositivos?" style="rhombus;whiteSpace=wrap;html=1;rounded=0;" vertex="1" parent="-K3TfnNwzPUzr7CPvffW-21">
          <mxGeometry x="15" width="90" height="90" as="geometry" />
        </mxCell>
        <mxCell id="-K3TfnNwzPUzr7CPvffW-23" value="No" style="rounded=1;whiteSpace=wrap;html=1;" vertex="1" parent="-K3TfnNwzPUzr7CPvffW-21">
          <mxGeometry y="35" width="20" height="20" as="geometry" />
        </mxCell>
        <mxCell id="-K3TfnNwzPUzr7CPvffW-24" value="Si" style="rounded=1;whiteSpace=wrap;html=1;" vertex="1" parent="-K3TfnNwzPUzr7CPvffW-21">
          <mxGeometry x="50" y="80" width="20" height="20" as="geometry" />
        </mxCell>
        <mxCell id="-K3TfnNwzPUzr7CPvffW-50" style="edgeStyle=orthogonalEdgeStyle;rounded=0;orthogonalLoop=1;jettySize=auto;html=1;entryX=0.5;entryY=0;entryDx=0;entryDy=0;" edge="1" parent="-K3TfnNwzPUzr7CPvffW-19" source="-K3TfnNwzPUzr7CPvffW-48" target="-K3TfnNwzPUzr7CPvffW-22">
          <mxGeometry relative="1" as="geometry" />
        </mxCell>
        <mxCell id="-K3TfnNwzPUzr7CPvffW-48" value="Realizar monitoreo" style="whiteSpace=wrap;html=1;rounded=0;" vertex="1" parent="-K3TfnNwzPUzr7CPvffW-19">
          <mxGeometry x="65" y="420" width="120" height="60" as="geometry" />
        </mxCell>
        <mxCell id="-K3TfnNwzPUzr7CPvffW-30" value="Base de datos" style="swimlane;html=1;startSize=20;" vertex="1" parent="-K3TfnNwzPUzr7CPvffW-1">
          <mxGeometry x="750" y="20" width="250" height="890" as="geometry">
            <mxRectangle x="500" y="20" width="40" height="970" as="alternateBounds" />
          </mxGeometry>
        </mxCell>
        <mxCell id="-K3TfnNwzPUzr7CPvffW-31" value="Busca dispositivos" style="whiteSpace=wrap;html=1;rounded=0;" vertex="1" parent="-K3TfnNwzPUzr7CPvffW-30">
          <mxGeometry x="65" y="630" width="120" height="60" as="geometry" />
        </mxCell>
        <mxCell id="-K3TfnNwzPUzr7CPvffW-32" style="edgeStyle=orthogonalEdgeStyle;rounded=0;orthogonalLoop=1;jettySize=auto;html=1;entryX=0;entryY=0.5;entryDx=0;entryDy=0;" edge="1" parent="-K3TfnNwzPUzr7CPvffW-1" source="-K3TfnNwzPUzr7CPvffW-6" target="-K3TfnNwzPUzr7CPvffW-12">
          <mxGeometry relative="1" as="geometry" />
        </mxCell>
        <mxCell id="-K3TfnNwzPUzr7CPvffW-33" value="" style="edgeStyle=orthogonalEdgeStyle;rounded=0;orthogonalLoop=1;jettySize=auto;html=1;" edge="1" parent="-K3TfnNwzPUzr7CPvffW-1" source="-K3TfnNwzPUzr7CPvffW-12" target="-K3TfnNwzPUzr7CPvffW-7">
          <mxGeometry relative="1" as="geometry">
            <Array as="points">
              <mxPoint x="375" y="210" />
              <mxPoint x="125" y="210" />
            </Array>
          </mxGeometry>
        </mxCell>
        <mxCell id="-K3TfnNwzPUzr7CPvffW-34" value="" style="edgeStyle=orthogonalEdgeStyle;rounded=0;orthogonalLoop=1;jettySize=auto;html=1;entryX=0;entryY=0.5;entryDx=0;entryDy=0;exitX=1;exitY=0.5;exitDx=0;exitDy=0;" edge="1" parent="-K3TfnNwzPUzr7CPvffW-1" source="-K3TfnNwzPUzr7CPvffW-7" target="-K3TfnNwzPUzr7CPvffW-14">
          <mxGeometry relative="1" as="geometry">
            <mxPoint x="210" y="290" as="sourcePoint" />
            <Array as="points" />
          </mxGeometry>
        </mxCell>
        <mxCell id="-K3TfnNwzPUzr7CPvffW-35" value="" style="edgeStyle=orthogonalEdgeStyle;rounded=0;orthogonalLoop=1;jettySize=auto;html=1;" edge="1" parent="-K3TfnNwzPUzr7CPvffW-1" source="-K3TfnNwzPUzr7CPvffW-31" target="-K3TfnNwzPUzr7CPvffW-20">
          <mxGeometry relative="1" as="geometry">
            <Array as="points">
              <mxPoint x="875" y="750" />
            </Array>
          </mxGeometry>
        </mxCell>
        <mxCell id="-K3TfnNwzPUzr7CPvffW-36" value="" style="edgeStyle=orthogonalEdgeStyle;rounded=0;orthogonalLoop=1;jettySize=auto;html=1;" edge="1" parent="-K3TfnNwzPUzr7CPvffW-1" source="-K3TfnNwzPUzr7CPvffW-20" target="-K3TfnNwzPUzr7CPvffW-16">
          <mxGeometry relative="1" as="geometry" />
        </mxCell>
        <mxCell id="-K3TfnNwzPUzr7CPvffW-37" style="edgeStyle=orthogonalEdgeStyle;rounded=0;orthogonalLoop=1;jettySize=auto;html=1;entryX=1;entryY=0.5;entryDx=0;entryDy=0;exitX=0;exitY=0.5;exitDx=0;exitDy=0;" edge="1" parent="-K3TfnNwzPUzr7CPvffW-1" source="-K3TfnNwzPUzr7CPvffW-23" target="-K3TfnNwzPUzr7CPvffW-15">
          <mxGeometry relative="1" as="geometry">
            <mxPoint x="572.5" y="744.9999999999998" as="sourcePoint" />
          </mxGeometry>
        </mxCell>
        <mxCell id="-K3TfnNwzPUzr7CPvffW-38" value="" style="edgeStyle=orthogonalEdgeStyle;rounded=0;orthogonalLoop=1;jettySize=auto;html=1;" edge="1" parent="-K3TfnNwzPUzr7CPvffW-1" source="-K3TfnNwzPUzr7CPvffW-16" target="-K3TfnNwzPUzr7CPvffW-9">
          <mxGeometry relative="1" as="geometry">
            <Array as="points">
              <mxPoint x="240" y="760" />
              <mxPoint x="240" y="760" />
            </Array>
          </mxGeometry>
        </mxCell>
        <mxCell id="-K3TfnNwzPUzr7CPvffW-13" value="" style="edgeStyle=orthogonalEdgeStyle;rounded=0;orthogonalLoop=1;jettySize=auto;html=1;" edge="1" parent="-K3TfnNwzPUzr7CPvffW-1" source="-K3TfnNwzPUzr7CPvffW-14" target="-K3TfnNwzPUzr7CPvffW-17">
          <mxGeometry relative="1" as="geometry">
            <Array as="points">
              <mxPoint x="375" y="400" />
            </Array>
          </mxGeometry>
        </mxCell>
        <mxCell id="-K3TfnNwzPUzr7CPvffW-45" style="edgeStyle=orthogonalEdgeStyle;rounded=0;orthogonalLoop=1;jettySize=auto;html=1;entryX=0;entryY=0.5;entryDx=0;entryDy=0;" edge="1" parent="-K3TfnNwzPUzr7CPvffW-1" source="-K3TfnNwzPUzr7CPvffW-17" target="-K3TfnNwzPUzr7CPvffW-18">
          <mxGeometry relative="1" as="geometry">
            <Array as="points">
              <mxPoint x="120" y="470" />
            </Array>
          </mxGeometry>
        </mxCell>
        <mxCell id="-K3TfnNwzPUzr7CPvffW-49" value="" style="edgeStyle=orthogonalEdgeStyle;rounded=0;orthogonalLoop=1;jettySize=auto;html=1;" edge="1" parent="-K3TfnNwzPUzr7CPvffW-1" source="-K3TfnNwzPUzr7CPvffW-18" target="-K3TfnNwzPUzr7CPvffW-48">
          <mxGeometry relative="1" as="geometry" />
        </mxCell>
        <mxCell id="-K3TfnNwzPUzr7CPvffW-51" style="edgeStyle=orthogonalEdgeStyle;rounded=0;orthogonalLoop=1;jettySize=auto;html=1;entryX=0;entryY=0.5;entryDx=0;entryDy=0;" edge="1" parent="-K3TfnNwzPUzr7CPvffW-1" source="-K3TfnNwzPUzr7CPvffW-15" target="-K3TfnNwzPUzr7CPvffW-17">
          <mxGeometry relative="1" as="geometry" />
        </mxCell>
        <mxCell id="-K3TfnNwzPUzr7CPvffW-52" style="edgeStyle=orthogonalEdgeStyle;rounded=0;orthogonalLoop=1;jettySize=auto;html=1;" edge="1" parent="-K3TfnNwzPUzr7CPvffW-1" source="-K3TfnNwzPUzr7CPvffW-24" target="-K3TfnNwzPUzr7CPvffW-31">
          <mxGeometry relative="1" as="geometry" />
        </mxCell>
      </root>
    </mxGraphModel>
  </diagram>
</mxfile>
